<mxfile host="app.diagrams.net" agent="Mozilla/5.0 (Windows NT 10.0; Win64; x64) AppleWebKit/537.36 (KHTML, like Gecko) Chrome/141.0.0.0 Safari/537.36" version="28.2.5">
  <diagram name="Page-1" id="XWdg4BXyk0OAKznfG6OP">
    <mxGraphModel dx="508" dy="321" grid="1" gridSize="10" guides="1" tooltips="1" connect="1" arrows="1" fold="1" page="1" pageScale="1" pageWidth="850" pageHeight="1100" math="0" shadow="0">
      <root>
        <mxCell id="0" />
        <mxCell id="1" parent="0" />
        <mxCell id="YZiVF-pcyp90Qx4Tovbm-1" value="House" style="swimlane;fontStyle=1;align=center;verticalAlign=top;childLayout=stackLayout;horizontal=1;startSize=30;horizontalStack=0;resizeParent=1;resizeParentMax=0;resizeLast=0;collapsible=1;marginBottom=0;whiteSpace=wrap;html=1;" vertex="1" parent="1">
          <mxGeometry x="180" y="160" width="150" height="100" as="geometry">
            <mxRectangle x="350" y="250" width="130" height="30" as="alternateBounds" />
          </mxGeometry>
        </mxCell>
        <mxCell id="YZiVF-pcyp90Qx4Tovbm-2" value="- address: String&lt;div&gt;- lotSize: int&lt;/div&gt;" style="text;strokeColor=none;fillColor=none;align=left;verticalAlign=top;spacingLeft=4;spacingRight=4;overflow=hidden;rotatable=0;points=[[0,0.5],[1,0.5]];portConstraint=eastwest;whiteSpace=wrap;html=1;" vertex="1" parent="YZiVF-pcyp90Qx4Tovbm-1">
          <mxGeometry y="30" width="150" height="40" as="geometry" />
        </mxCell>
        <mxCell id="YZiVF-pcyp90Qx4Tovbm-3" value="" style="line;strokeWidth=1;fillColor=none;align=left;verticalAlign=middle;spacingTop=-1;spacingLeft=3;spacingRight=3;rotatable=0;labelPosition=right;points=[];portConstraint=eastwest;strokeColor=inherit;" vertex="1" parent="YZiVF-pcyp90Qx4Tovbm-1">
          <mxGeometry y="70" width="150" height="8" as="geometry" />
        </mxCell>
        <mxCell id="YZiVF-pcyp90Qx4Tovbm-4" value="&lt;br&gt;&lt;div&gt;&lt;br&gt;&lt;/div&gt;&lt;div&gt;&lt;br&gt;&lt;/div&gt;&lt;div&gt;&lt;br&gt;&lt;/div&gt;" style="text;strokeColor=none;fillColor=none;align=left;verticalAlign=top;spacingLeft=4;spacingRight=4;overflow=hidden;rotatable=0;points=[[0,0.5],[1,0.5]];portConstraint=eastwest;whiteSpace=wrap;html=1;" vertex="1" parent="YZiVF-pcyp90Qx4Tovbm-1">
          <mxGeometry y="78" width="150" height="22" as="geometry" />
        </mxCell>
        <mxCell id="YZiVF-pcyp90Qx4Tovbm-12" value="Condominium" style="swimlane;fontStyle=1;align=center;verticalAlign=top;childLayout=stackLayout;horizontal=1;startSize=30;horizontalStack=0;resizeParent=1;resizeParentMax=0;resizeLast=0;collapsible=1;marginBottom=0;whiteSpace=wrap;html=1;" vertex="1" parent="1">
          <mxGeometry x="180" y="290" width="150" height="110" as="geometry">
            <mxRectangle x="350" y="250" width="130" height="30" as="alternateBounds" />
          </mxGeometry>
        </mxCell>
        <mxCell id="YZiVF-pcyp90Qx4Tovbm-13" value="- address: String&lt;div&gt;- numFloors: int&lt;/div&gt;" style="text;strokeColor=none;fillColor=none;align=left;verticalAlign=top;spacingLeft=4;spacingRight=4;overflow=hidden;rotatable=0;points=[[0,0.5],[1,0.5]];portConstraint=eastwest;whiteSpace=wrap;html=1;" vertex="1" parent="YZiVF-pcyp90Qx4Tovbm-12">
          <mxGeometry y="30" width="150" height="50" as="geometry" />
        </mxCell>
        <mxCell id="YZiVF-pcyp90Qx4Tovbm-14" value="" style="line;strokeWidth=1;fillColor=none;align=left;verticalAlign=middle;spacingTop=-1;spacingLeft=3;spacingRight=3;rotatable=0;labelPosition=right;points=[];portConstraint=eastwest;strokeColor=inherit;" vertex="1" parent="YZiVF-pcyp90Qx4Tovbm-12">
          <mxGeometry y="80" width="150" height="8" as="geometry" />
        </mxCell>
        <mxCell id="YZiVF-pcyp90Qx4Tovbm-15" value="&lt;br&gt;&lt;div&gt;&lt;br&gt;&lt;/div&gt;&lt;div&gt;&lt;br&gt;&lt;/div&gt;&lt;div&gt;&lt;br&gt;&lt;/div&gt;" style="text;strokeColor=none;fillColor=none;align=left;verticalAlign=top;spacingLeft=4;spacingRight=4;overflow=hidden;rotatable=0;points=[[0,0.5],[1,0.5]];portConstraint=eastwest;whiteSpace=wrap;html=1;" vertex="1" parent="YZiVF-pcyp90Qx4Tovbm-12">
          <mxGeometry y="88" width="150" height="22" as="geometry" />
        </mxCell>
        <mxCell id="YZiVF-pcyp90Qx4Tovbm-16" value="Admin" style="swimlane;fontStyle=1;align=center;verticalAlign=top;childLayout=stackLayout;horizontal=1;startSize=30;horizontalStack=0;resizeParent=1;resizeParentMax=0;resizeLast=0;collapsible=1;marginBottom=0;whiteSpace=wrap;html=1;" vertex="1" parent="1">
          <mxGeometry x="520" y="290" width="160" height="110" as="geometry">
            <mxRectangle x="350" y="250" width="130" height="30" as="alternateBounds" />
          </mxGeometry>
        </mxCell>
        <mxCell id="YZiVF-pcyp90Qx4Tovbm-17" value="- id: int" style="text;strokeColor=none;fillColor=none;align=left;verticalAlign=top;spacingLeft=4;spacingRight=4;overflow=hidden;rotatable=0;points=[[0,0.5],[1,0.5]];portConstraint=eastwest;whiteSpace=wrap;html=1;" vertex="1" parent="YZiVF-pcyp90Qx4Tovbm-16">
          <mxGeometry y="30" width="160" height="50" as="geometry" />
        </mxCell>
        <mxCell id="YZiVF-pcyp90Qx4Tovbm-18" value="" style="line;strokeWidth=1;fillColor=none;align=left;verticalAlign=middle;spacingTop=-1;spacingLeft=3;spacingRight=3;rotatable=0;labelPosition=right;points=[];portConstraint=eastwest;strokeColor=inherit;" vertex="1" parent="YZiVF-pcyp90Qx4Tovbm-16">
          <mxGeometry y="80" width="160" height="8" as="geometry" />
        </mxCell>
        <mxCell id="YZiVF-pcyp90Qx4Tovbm-19" value="&lt;br&gt;&lt;div&gt;&lt;br&gt;&lt;/div&gt;&lt;div&gt;&lt;br&gt;&lt;/div&gt;&lt;div&gt;&lt;br&gt;&lt;/div&gt;" style="text;strokeColor=none;fillColor=none;align=left;verticalAlign=top;spacingLeft=4;spacingRight=4;overflow=hidden;rotatable=0;points=[[0,0.5],[1,0.5]];portConstraint=eastwest;whiteSpace=wrap;html=1;" vertex="1" parent="YZiVF-pcyp90Qx4Tovbm-16">
          <mxGeometry y="88" width="160" height="22" as="geometry" />
        </mxCell>
        <mxCell id="YZiVF-pcyp90Qx4Tovbm-20" value="Trailer" style="swimlane;fontStyle=1;align=center;verticalAlign=top;childLayout=stackLayout;horizontal=1;startSize=30;horizontalStack=0;resizeParent=1;resizeParentMax=0;resizeLast=0;collapsible=1;marginBottom=0;whiteSpace=wrap;html=1;" vertex="1" parent="1">
          <mxGeometry x="520" y="160" width="160" height="100" as="geometry">
            <mxRectangle x="350" y="250" width="130" height="30" as="alternateBounds" />
          </mxGeometry>
        </mxCell>
        <mxCell id="YZiVF-pcyp90Qx4Tovbm-21" value="&lt;img height=&quot;0&quot; width=&quot;0&quot; src=&quot;&amp;lt;mxfile host=&amp;quot;app.diagrams.net&amp;quot; agent=&amp;quot;Mozilla/5.0 (Windows NT 10.0; Win64; x64) AppleWebKit/537.36 (KHTML, like Gecko) Chrome/141.0.0.0 Safari/537.36&amp;quot; scale=&amp;quot;1&amp;quot; border=&amp;quot;0&amp;quot; version=&amp;quot;28.2.5&amp;quot;&amp;gt;&lt;br/&gt;  &amp;lt;diagram name=&amp;quot;Page-1&amp;quot; id=&amp;quot;XWdg4BXyk0OAKznfG6OP&amp;quot;&amp;gt;&lt;br/&gt;    &amp;lt;mxGraphModel dx=&amp;quot;889&amp;quot; dy=&amp;quot;561&amp;quot; grid=&amp;quot;1&amp;quot; gridSize=&amp;quot;10&amp;quot; guides=&amp;quot;1&amp;quot; tooltips=&amp;quot;1&amp;quot; connect=&amp;quot;1&amp;quot; arrows=&amp;quot;1&amp;quot; fold=&amp;quot;1&amp;quot; page=&amp;quot;1&amp;quot; pageScale=&amp;quot;1&amp;quot; pageWidth=&amp;quot;850&amp;quot; pageHeight=&amp;quot;1100&amp;quot; math=&amp;quot;0&amp;quot; shadow=&amp;quot;0&amp;quot;&amp;gt;&lt;br/&gt;      &amp;lt;root&amp;gt;&lt;br/&gt;        &amp;lt;mxCell id=&amp;quot;0&amp;quot; /&amp;gt;&lt;br/&gt;        &amp;lt;mxCell id=&amp;quot;1&amp;quot; parent=&amp;quot;0&amp;quot; /&amp;gt;&lt;br/&gt;        &amp;lt;mxCell id=&amp;quot;m0ALYSGnHEnHxEo8LG8C-1&amp;quot; value=&amp;quot;ATM Machine&amp;quot; style=&amp;quot;swimlane;whiteSpace=wrap;html=1;&amp;quot; parent=&amp;quot;1&amp;quot; vertex=&amp;quot;1&amp;quot;&amp;gt;&lt;br/&gt;          &amp;lt;mxGeometry x=&amp;quot;320&amp;quot; y=&amp;quot;80&amp;quot; width=&amp;quot;270&amp;quot; height=&amp;quot;430&amp;quot; as=&amp;quot;geometry&amp;quot; /&amp;gt;&lt;br/&gt;        &amp;lt;/mxCell&amp;gt;&lt;br/&gt;        &amp;lt;mxCell id=&amp;quot;m0ALYSGnHEnHxEo8LG8C-7&amp;quot; value=&amp;quot;Check Balance&amp;quot; style=&amp;quot;ellipse;whiteSpace=wrap;html=1;&amp;quot; parent=&amp;quot;m0ALYSGnHEnHxEo8LG8C-1&amp;quot; vertex=&amp;quot;1&amp;quot;&amp;gt;&lt;br/&gt;          &amp;lt;mxGeometry x=&amp;quot;70&amp;quot; y=&amp;quot;45&amp;quot; width=&amp;quot;120&amp;quot; height=&amp;quot;80&amp;quot; as=&amp;quot;geometry&amp;quot; /&amp;gt;&lt;br/&gt;        &amp;lt;/mxCell&amp;gt;&lt;br/&gt;        &amp;lt;mxCell id=&amp;quot;m0ALYSGnHEnHxEo8LG8C-11&amp;quot; value=&amp;quot;Withdraw Money&amp;quot; style=&amp;quot;ellipse;whiteSpace=wrap;html=1;&amp;quot; parent=&amp;quot;m0ALYSGnHEnHxEo8LG8C-1&amp;quot; vertex=&amp;quot;1&amp;quot;&amp;gt;&lt;br/&gt;          &amp;lt;mxGeometry x=&amp;quot;80&amp;quot; y=&amp;quot;320&amp;quot; width=&amp;quot;120&amp;quot; height=&amp;quot;80&amp;quot; as=&amp;quot;geometry&amp;quot; /&amp;gt;&lt;br/&gt;        &amp;lt;/mxCell&amp;gt;&lt;br/&gt;        &amp;lt;mxCell id=&amp;quot;m0ALYSGnHEnHxEo8LG8C-13&amp;quot; value=&amp;quot;Deposit Money&amp;quot; style=&amp;quot;ellipse;whiteSpace=wrap;html=1;&amp;quot; parent=&amp;quot;m0ALYSGnHEnHxEo8LG8C-1&amp;quot; vertex=&amp;quot;1&amp;quot;&amp;gt;&lt;br/&gt;          &amp;lt;mxGeometry x=&amp;quot;75&amp;quot; y=&amp;quot;180&amp;quot; width=&amp;quot;120&amp;quot; height=&amp;quot;80&amp;quot; as=&amp;quot;geometry&amp;quot; /&amp;gt;&lt;br/&gt;        &amp;lt;/mxCell&amp;gt;&lt;br/&gt;        &amp;lt;mxCell id=&amp;quot;m0ALYSGnHEnHxEo8LG8C-2&amp;quot; value=&amp;quot;Customer&amp;quot; style=&amp;quot;shape=umlActor;verticalLabelPosition=bottom;verticalAlign=top;html=1;outlineConnect=0;&amp;quot; parent=&amp;quot;1&amp;quot; vertex=&amp;quot;1&amp;quot;&amp;gt;&lt;br/&gt;          &amp;lt;mxGeometry x=&amp;quot;50&amp;quot; y=&amp;quot;215&amp;quot; width=&amp;quot;30&amp;quot; height=&amp;quot;60&amp;quot; as=&amp;quot;geometry&amp;quot; /&amp;gt;&lt;br/&gt;        &amp;lt;/mxCell&amp;gt;&lt;br/&gt;        &amp;lt;mxCell id=&amp;quot;m0ALYSGnHEnHxEo8LG8C-4&amp;quot; value=&amp;quot;ATM Machine&amp;quot; style=&amp;quot;whiteSpace=wrap;html=1;aspect=fixed;&amp;quot; parent=&amp;quot;1&amp;quot; vertex=&amp;quot;1&amp;quot;&amp;gt;&lt;br/&gt;          &amp;lt;mxGeometry x=&amp;quot;710&amp;quot; y=&amp;quot;205&amp;quot; width=&amp;quot;80&amp;quot; height=&amp;quot;80&amp;quot; as=&amp;quot;geometry&amp;quot; /&amp;gt;&lt;br/&gt;        &amp;lt;/mxCell&amp;gt;&lt;br/&gt;        &amp;lt;mxCell id=&amp;quot;m0ALYSGnHEnHxEo8LG8C-8&amp;quot; value=&amp;quot;&amp;quot; style=&amp;quot;endArrow=none;html=1;rounded=0;entryX=0;entryY=0.5;entryDx=0;entryDy=0;&amp;quot; parent=&amp;quot;1&amp;quot; target=&amp;quot;m0ALYSGnHEnHxEo8LG8C-7&amp;quot; edge=&amp;quot;1&amp;quot;&amp;gt;&lt;br/&gt;          &amp;lt;mxGeometry width=&amp;quot;50&amp;quot; height=&amp;quot;50&amp;quot; relative=&amp;quot;1&amp;quot; as=&amp;quot;geometry&amp;quot;&amp;gt;&lt;br/&gt;            &amp;lt;mxPoint x=&amp;quot;90&amp;quot; y=&amp;quot;240&amp;quot; as=&amp;quot;sourcePoint&amp;quot; /&amp;gt;&lt;br/&gt;            &amp;lt;mxPoint x=&amp;quot;450&amp;quot; y=&amp;quot;270&amp;quot; as=&amp;quot;targetPoint&amp;quot; /&amp;gt;&lt;br/&gt;          &amp;lt;/mxGeometry&amp;gt;&lt;br/&gt;        &amp;lt;/mxCell&amp;gt;&lt;br/&gt;        &amp;lt;mxCell id=&amp;quot;m0ALYSGnHEnHxEo8LG8C-9&amp;quot; value=&amp;quot;&amp;quot; style=&amp;quot;endArrow=none;html=1;rounded=0;endSize=5;exitX=1;exitY=0.5;exitDx=0;exitDy=0;&amp;quot; parent=&amp;quot;1&amp;quot; source=&amp;quot;m0ALYSGnHEnHxEo8LG8C-7&amp;quot; edge=&amp;quot;1&amp;quot;&amp;gt;&lt;br/&gt;          &amp;lt;mxGeometry width=&amp;quot;50&amp;quot; height=&amp;quot;50&amp;quot; relative=&amp;quot;1&amp;quot; as=&amp;quot;geometry&amp;quot;&amp;gt;&lt;br/&gt;            &amp;lt;mxPoint x=&amp;quot;530&amp;quot; y=&amp;quot;245&amp;quot; as=&amp;quot;sourcePoint&amp;quot; /&amp;gt;&lt;br/&gt;            &amp;lt;mxPoint x=&amp;quot;709&amp;quot; y=&amp;quot;242&amp;quot; as=&amp;quot;targetPoint&amp;quot; /&amp;gt;&lt;br/&gt;          &amp;lt;/mxGeometry&amp;gt;&lt;br/&gt;        &amp;lt;/mxCell&amp;gt;&lt;br/&gt;        &amp;lt;mxCell id=&amp;quot;m0ALYSGnHEnHxEo8LG8C-14&amp;quot; value=&amp;quot;&amp;quot; style=&amp;quot;endArrow=none;html=1;rounded=0;entryX=-0.06;entryY=0.485;entryDx=0;entryDy=0;entryPerimeter=0;&amp;quot; parent=&amp;quot;1&amp;quot; target=&amp;quot;m0ALYSGnHEnHxEo8LG8C-13&amp;quot; edge=&amp;quot;1&amp;quot;&amp;gt;&lt;br/&gt;          &amp;lt;mxGeometry width=&amp;quot;50&amp;quot; height=&amp;quot;50&amp;quot; relative=&amp;quot;1&amp;quot; as=&amp;quot;geometry&amp;quot;&amp;gt;&lt;br/&gt;            &amp;lt;mxPoint x=&amp;quot;100&amp;quot; y=&amp;quot;250&amp;quot; as=&amp;quot;sourcePoint&amp;quot; /&amp;gt;&lt;br/&gt;            &amp;lt;mxPoint x=&amp;quot;400&amp;quot; y=&amp;quot;175&amp;quot; as=&amp;quot;targetPoint&amp;quot; /&amp;gt;&lt;br/&gt;          &amp;lt;/mxGeometry&amp;gt;&lt;br/&gt;        &amp;lt;/mxCell&amp;gt;&lt;br/&gt;        &amp;lt;mxCell id=&amp;quot;m0ALYSGnHEnHxEo8LG8C-15&amp;quot; value=&amp;quot;&amp;quot; style=&amp;quot;endArrow=none;html=1;rounded=0;entryX=0;entryY=0.5;entryDx=0;entryDy=0;&amp;quot; parent=&amp;quot;1&amp;quot; target=&amp;quot;m0ALYSGnHEnHxEo8LG8C-11&amp;quot; edge=&amp;quot;1&amp;quot;&amp;gt;&lt;br/&gt;          &amp;lt;mxGeometry width=&amp;quot;50&amp;quot; height=&amp;quot;50&amp;quot; relative=&amp;quot;1&amp;quot; as=&amp;quot;geometry&amp;quot;&amp;gt;&lt;br/&gt;            &amp;lt;mxPoint x=&amp;quot;90&amp;quot; y=&amp;quot;250&amp;quot; as=&amp;quot;sourcePoint&amp;quot; /&amp;gt;&lt;br/&gt;            &amp;lt;mxPoint x=&amp;quot;398&amp;quot; y=&amp;quot;309&amp;quot; as=&amp;quot;targetPoint&amp;quot; /&amp;gt;&lt;br/&gt;          &amp;lt;/mxGeometry&amp;gt;&lt;br/&gt;        &amp;lt;/mxCell&amp;gt;&lt;br/&gt;        &amp;lt;mxCell id=&amp;quot;m0ALYSGnHEnHxEo8LG8C-16&amp;quot; value=&amp;quot;&amp;quot; style=&amp;quot;endArrow=none;html=1;rounded=0;endSize=5;exitX=1;exitY=0.5;exitDx=0;exitDy=0;entryX=0.008;entryY=0.593;entryDx=0;entryDy=0;entryPerimeter=0;&amp;quot; parent=&amp;quot;1&amp;quot; source=&amp;quot;m0ALYSGnHEnHxEo8LG8C-13&amp;quot; target=&amp;quot;m0ALYSGnHEnHxEo8LG8C-4&amp;quot; edge=&amp;quot;1&amp;quot;&amp;gt;&lt;br/&gt;          &amp;lt;mxGeometry width=&amp;quot;50&amp;quot; height=&amp;quot;50&amp;quot; relative=&amp;quot;1&amp;quot; as=&amp;quot;geometry&amp;quot;&amp;gt;&lt;br/&gt;            &amp;lt;mxPoint x=&amp;quot;520&amp;quot; y=&amp;quot;175&amp;quot; as=&amp;quot;sourcePoint&amp;quot; /&amp;gt;&lt;br/&gt;            &amp;lt;mxPoint x=&amp;quot;719&amp;quot; y=&amp;quot;252&amp;quot; as=&amp;quot;targetPoint&amp;quot; /&amp;gt;&lt;br/&gt;          &amp;lt;/mxGeometry&amp;gt;&lt;br/&gt;        &amp;lt;/mxCell&amp;gt;&lt;br/&gt;        &amp;lt;mxCell id=&amp;quot;m0ALYSGnHEnHxEo8LG8C-17&amp;quot; value=&amp;quot;&amp;quot; style=&amp;quot;endArrow=none;html=1;rounded=0;endSize=5;exitX=1.048;exitY=0.595;exitDx=0;exitDy=0;exitPerimeter=0;entryX=0.008;entryY=0.598;entryDx=0;entryDy=0;entryPerimeter=0;&amp;quot; parent=&amp;quot;1&amp;quot; source=&amp;quot;m0ALYSGnHEnHxEo8LG8C-11&amp;quot; target=&amp;quot;m0ALYSGnHEnHxEo8LG8C-4&amp;quot; edge=&amp;quot;1&amp;quot;&amp;gt;&lt;br/&gt;          &amp;lt;mxGeometry width=&amp;quot;50&amp;quot; height=&amp;quot;50&amp;quot; relative=&amp;quot;1&amp;quot; as=&amp;quot;geometry&amp;quot;&amp;gt;&lt;br/&gt;            &amp;lt;mxPoint x=&amp;quot;525&amp;quot; y=&amp;quot;310&amp;quot; as=&amp;quot;sourcePoint&amp;quot; /&amp;gt;&lt;br/&gt;            &amp;lt;mxPoint x=&amp;quot;729&amp;quot; y=&amp;quot;262&amp;quot; as=&amp;quot;targetPoint&amp;quot; /&amp;gt;&lt;br/&gt;          &amp;lt;/mxGeometry&amp;gt;&lt;br/&gt;        &amp;lt;/mxCell&amp;gt;&lt;br/&gt;      &amp;lt;/root&amp;gt;&lt;br/&gt;    &amp;lt;/mxGraphModel&amp;gt;&lt;br/&gt;  &amp;lt;/diagram&amp;gt;&lt;br/&gt;&amp;lt;/mxfile&amp;gt;&quot;&gt;- address: String" style="text;strokeColor=none;fillColor=none;align=left;verticalAlign=top;spacingLeft=4;spacingRight=4;overflow=hidden;rotatable=0;points=[[0,0.5],[1,0.5]];portConstraint=eastwest;whiteSpace=wrap;html=1;" vertex="1" parent="YZiVF-pcyp90Qx4Tovbm-20">
          <mxGeometry y="30" width="160" height="40" as="geometry" />
        </mxCell>
        <mxCell id="YZiVF-pcyp90Qx4Tovbm-22" value="" style="line;strokeWidth=1;fillColor=none;align=left;verticalAlign=middle;spacingTop=-1;spacingLeft=3;spacingRight=3;rotatable=0;labelPosition=right;points=[];portConstraint=eastwest;strokeColor=inherit;" vertex="1" parent="YZiVF-pcyp90Qx4Tovbm-20">
          <mxGeometry y="70" width="160" height="8" as="geometry" />
        </mxCell>
        <mxCell id="YZiVF-pcyp90Qx4Tovbm-23" value="&lt;br&gt;&lt;div&gt;&lt;br&gt;&lt;/div&gt;&lt;div&gt;&lt;br&gt;&lt;/div&gt;&lt;div&gt;&lt;br&gt;&lt;/div&gt;" style="text;strokeColor=none;fillColor=none;align=left;verticalAlign=top;spacingLeft=4;spacingRight=4;overflow=hidden;rotatable=0;points=[[0,0.5],[1,0.5]];portConstraint=eastwest;whiteSpace=wrap;html=1;" vertex="1" parent="YZiVF-pcyp90Qx4Tovbm-20">
          <mxGeometry y="78" width="160" height="22" as="geometry" />
        </mxCell>
      </root>
    </mxGraphModel>
  </diagram>
</mxfile>
